<svg width="1920" height="835" viewBox="0 0 1920 835" fill="none" xmlns="http://www.w3.org/2000/svg">
<mask id="mask0_2029_18" style="mask-type:luminance" maskUnits="userSpaceOnUse" x="-255" y="0" width="3338" height="835">
<path d="M3082.19 0H-255V834.446H3082.19V0Z" fill="white"/>
</mask>
<g mask="url(#mask0_2029_18)">
<mask id="mask1_2029_18" style="mask-type:luminance" maskUnits="userSpaceOnUse" x="-252" y="1" width="3333" height="834">
<path d="M-251.792 1.00732H3080.8V834.299H-251.792V1.00732Z" fill="white"/>
</mask>
<g mask="url(#mask1_2029_18)">
<path d="M-251.792 1.00732H3080.11V834.125H-251.792V1.00732Z" fill="#E8E59F" fill-opacity="0.38"/>
<path d="M1414.16 417.57L3080.11 548.908V509.915L1414.16 417.57ZM-251.792 286.225V325.218L1414.16 417.57L-251.792 286.225ZM1414.16 417.57L3080.11 682.947V634.413L1414.16 417.57ZM-251.792 152.185V200.719L1414.16 417.57L-251.792 152.185ZM1414.16 417.57L2940.69 834.125H3080.11V799.271L1414.16 417.57ZM-112.375 1.00732H-251.792V35.8615L1414.16 417.57L-112.375 1.00732ZM1414.16 417.57L2281.38 834.125H2475.51L1414.16 417.57ZM546.913 1.00732H352.811L1414.16 417.57L546.913 1.00732ZM1414.16 417.57L1783.5 834.125H1939.44L1414.16 417.57ZM1044.82 1.00732H888.9L1414.16 417.57L1044.82 1.00732ZM1414.16 417.57L1341.44 834.125H1486.88L1414.16 417.57ZM1341.44 1.00732L1414.16 417.57L1486.88 1.00732H1341.44ZM888.9 834.125H1044.82L1414.16 417.57L888.9 834.125ZM1783.5 1.00732L1414.16 417.57L1939.44 1.00732H1783.5ZM352.811 834.125H546.913L1414.16 417.57L352.811 834.125ZM2281.38 1.00732L1414.16 417.57L2475.51 1.00732H2281.38ZM-251.792 799.271V834.125H-112.375L1414.16 417.57L-251.792 799.271ZM2940.69 1.00732L1414.16 417.57L3080.11 35.8615V1.00732H2940.69ZM-251.792 634.413V682.947L1414.16 417.57L-251.792 634.413ZM1414.16 417.57L3080.11 200.719V152.185L1414.16 417.57ZM-251.792 509.915V548.908L1414.16 417.57L-251.792 509.915ZM1414.16 417.57L3080.11 325.218V286.225L1414.16 417.57ZM-251.792 399.379V435.754L1414.16 417.57L-251.792 399.379ZM1414.16 417.57L3080.11 435.754V399.379L1414.16 417.57Z" fill="#F2D8B3" fill-opacity="0.42"/>
</g>
</g>
</svg>
