<?xml version="1.0" standalone="no"?>
<svg xmlns:xlink="http://www.w3.org/1999/xlink" id="wave" style="transform:rotate(0deg); transition: 0.3s" viewBox="0 0 1440 228" version="1.1" xmlns="http://www.w3.org/2000/svg"><defs><linearGradient id="sw-gradient-0" x1="0" x2="0" y1="1" y2="0"><stop stop-color="rgba(243, 106, 62, 1)" offset="0%"/><stop stop-color="rgba(255, 179, 11, 1)" offset="100%"/></linearGradient></defs><path style="transform:translate(0, 0px); opacity:1" fill="url(#sw-gradient-0)" d="M0,115L60,115C120,115,240,115,360,126.5C480,138,600,161,720,172.5C840,184,960,184,1080,157.2C1200,130,1320,77,1440,61.3C1560,46,1680,69,1800,95.8C1920,123,2040,153,2160,164.8C2280,176,2400,169,2520,149.5C2640,130,2760,100,2880,99.7C3000,100,3120,130,3240,141.8C3360,153,3480,146,3600,149.5C3720,153,3840,169,3960,149.5C4080,130,4200,77,4320,49.8C4440,23,4560,23,4680,38.3C4800,54,4920,84,5040,107.3C5160,130,5280,146,5400,145.7C5520,146,5640,130,5760,115C5880,100,6000,84,6120,65.2C6240,46,6360,23,6480,38.3C6600,54,6720,107,6840,141.8C6960,176,7080,192,7200,164.8C7320,138,7440,69,7560,61.3C7680,54,7800,107,7920,107.3C8040,107,8160,54,8280,30.7C8400,8,8520,15,8580,19.2L8640,23L8640,230L8580,230C8520,230,8400,230,8280,230C8160,230,8040,230,7920,230C7800,230,7680,230,7560,230C7440,230,7320,230,7200,230C7080,230,6960,230,6840,230C6720,230,6600,230,6480,230C6360,230,6240,230,6120,230C6000,230,5880,230,5760,230C5640,230,5520,230,5400,230C5280,230,5160,230,5040,230C4920,230,4800,230,4680,230C4560,230,4440,230,4320,230C4200,230,4080,230,3960,230C3840,230,3720,230,3600,230C3480,230,3360,230,3240,230C3120,230,3000,230,2880,230C2760,230,2640,230,2520,230C2400,230,2280,230,2160,230C2040,230,1920,230,1800,230C1680,230,1560,230,1440,230C1320,230,1200,230,1080,230C960,230,840,230,720,230C600,230,480,230,360,230C240,230,120,230,60,230L0,230Z"/></svg>